<?xml version="1.0" encoding="UTF-8"?>
<svg viewBox="0 0 64 64" version="1.1" xmlns="http://www.w3.org/2000/svg" xmlns:xlink="http://www.w3.org/1999/xlink">
<path d="M26.8571429,32.2163274 C26.8571429,32.2163274 28.3805028,30.7372952 30.9088998,28.7363356 C30.5235588,26.8473507 30.2664944,24.7922133 30.2652669,22.6666667 C30.2652669,22.6666667 31.657793,24.2609637 34.0080964,26.4194119 C35.6294538,25.2726849 37.4626618,24.0834053 39.438672,22.973857 C39.438672,22.973857 38.4035606,25.5324971 37.1819675,29.1506752 C38.7034861,30.3762561 40.423148,31.6405511 42.2857143,32.815354 C42.2857143,32.815354 39.6188115,33.0615669 35.9482014,33.0150661 C35.3999064,34.8319967 34.8709449,36.7571732 34.4289332,38.6666667 C34.4289332,38.6666667 33.1410537,36.3667421 31.9974086,32.8495716 C30.3211193,32.726849 28.57169,32.5275756 26.8571429,32.2163274 M25.316037,17.4411708 C25.316037,17.4411708 26.8452993,16.5343393 29.4939207,16.0464043 C31.048487,14.8931132 33.0044518,13.886701 35.4419269,13.3333333 C35.4419269,13.3333333 34.1321056,14.0405792 32.974528,15.7487227 C34.2411961,15.7574187 35.6359589,15.8910414 37.1428571,16.2165082 C37.1428571,16.2165082 34.8029231,16.7649975 31.8363747,18.0369583 C31.4065223,19.2861185 31.1499129,20.8158863 31.2542786,22.663061 C31.2542786,22.663061 29.9802608,21.9155162 28.6789442,20.7020949 C28.4323093,20.4719669 28.1992188,20.2316581 27.9733731,19.9885921 C26.6948405,20.7499233 25.4282774,21.6378779 24.2857143,22.6666667 C24.2857143,22.6666667 24.9742761,20.7638158 26.7580479,18.6345487 C26.2532286,18.0840444 25.7718234,17.7050226 25.316037,17.4411708 M56.2771392,3.97118391 C55.1229812,2.2790722 53.688211,1.0608813 52.12816,0.448156622 C50.4315334,-0.21805723 48.673458,-0.140224334 47.0435648,0.673168508 C45.6652694,1.3611577 44.7041619,2.72630426 44.4070735,4.41863931 C44.0196254,6.62498414 45.2961627,9.06192429 46.9650183,10.9829563 C48.331397,12.5559178 48.331397,13.9767869 47.6163952,14.7324471 C46.7405699,15.6580668 44.8404268,14.8338421 44.8404268,14.8338421 C46.2937456,16.689213 49.4900108,16.9906061 50.2091575,14.2780683 C50.6626137,12.567643 49.3197574,10.7365041 48.145911,9.18140951 C46.9650183,7.61682314 46.7225394,6.24743318 46.9523762,4.93778584 C47.0921642,4.14192494 47.5222015,3.51088664 48.1322327,3.2064785 C49.7221273,2.41285097 52.1481594,2.63160943 54.1897485,5.62465835 C55.9063745,8.14132975 56.6841721,11.7411849 56.3238734,15.5011726 C55.8802614,20.1309457 53.7687264,24.8076196 50.2174473,29.0258945 C47.5155696,32.2353568 45.2239371,34.9637516 43.3014113,37.2569744 C44.775973,33.3787299 46.7433677,27.9479591 47.5062435,23.3964656 C47.251019,22.2890498 46.146393,21.3150777 45.050057,21.0099996 C43.8235699,21.4019558 42.3291126,22.0457243 40.5278262,23.0711755 C40.5278262,23.0711755 41.5652005,21.0017361 42.1796875,18.7260452 C40.6289627,17.6343746 38.8926482,16.642424 37.0472183,15.9704034 C37.0472183,15.9704034 39.7439148,15.3354567 42.907435,16.2013337 C42.9749975,15.6468999 42.7065091,14.9402621 42.4282802,14.5012935 C42.4100425,14.4725947 42.3901468,14.4449009 42.3711837,14.4163138 C42.1685998,14.111794 41.8016692,13.5043178 42.5164637,12.7607177 C42.7637093,12.5034336 43.1473233,12.2071773 43.5689671,11.7960141 C44.1682215,11.2117649 43.9208723,10.6305307 43.2548844,10.3658765 C41.8924434,9.82473133 38.0070823,9.18152117 32.0967118,9.18140951 L32.0960901,9.18140951 L32.0954683,9.18140951 C26.1852015,9.18152117 22.2997368,9.82473133 20.9373993,10.3658765 C20.2714115,10.6305307 20.0239587,11.2117649 20.6233167,11.7960141 C21.0449605,12.2071773 21.4285745,12.5034336 21.67582,12.7607177 C22.3905109,13.5043178 22.0236839,14.111794 21.8212037,14.4163138 C21.1873391,15.3692922 20.5703651,15.9656016 18.1092046,17.9004805 C17.1334863,18.6676426 16.3202495,19.6037591 16.3876047,20.8380302 C16.6643829,25.9075536 19.2803568,33.0407095 21.0509706,37.6772944 C19.0579809,35.2993152 16.65143,32.43368 13.7825113,29.0258945 C10.2313358,24.8076196 8.11980088,20.1309457 7.67618891,15.5011726 C7.31578657,11.7411849 8.09368778,8.14132975 9.81021015,5.62465835 C11.8519029,2.63160943 14.277935,2.41285097 15.8677259,3.2064785 C16.4777571,3.51088664 16.9077944,4.14192494 17.0475825,4.93778584 C17.2775229,6.24743318 17.035044,7.61682314 15.8541512,9.18140951 C14.6803048,10.7365041 13.337345,12.567643 13.7908012,14.2780683 C14.5100515,16.9906061 17.7063167,16.689213 19.1596355,14.8338421 C19.1596355,14.8338421 17.2593888,15.6580668 16.383667,14.7324471 C15.6686653,13.9767869 15.6686653,12.5559178 17.035044,10.9829563 C18.7038996,9.06192429 19.9804368,6.62498414 19.5929888,4.41863931 C19.2957967,2.72630426 18.3347929,1.3611577 16.9563938,0.673168508 C15.3266043,-0.140224334 13.5685289,-0.21805723 11.8719022,0.448156622 C10.3117476,1.0608813 8.87708102,2.2790722 7.72292309,3.97118391 C5.62993674,7.03972069 4.67369958,11.3466604 5.09917745,15.7878255 C5.59998956,21.013573 7.93918522,26.2398788 11.8639232,30.9017008 C18.1937614,38.4204478 21.7964377,43.2200686 23.72487,45.9541584 C25.1103155,47.9181828 26.2377386,50.0809769 27.0451725,52.3894984 C27.1719039,52.7519741 27.2678593,53.0538138 27.3255775,53.2803891 C27.708777,54.7829995 26.9596831,55.7719351 26.4023962,56.3748329 C24.7055623,58.2106619 23.6589655,59.210541 22.015394,60.6990812 C21.3871251,61.1985741 21.4037048,61.7053254 21.8475241,62.0061602 C23.2848849,62.9803556 26.5874677,64 32.2201273,64 C36.3616456,64 40.8651205,62.9803556 42.3024813,62.0061602 C42.7463005,61.7053254 42.7283737,61.1774688 42.1346113,60.6990812 C40.8259509,59.5812802 39.5266165,58.2541009 37.7897839,56.3748329 C37.2326006,55.7719351 36.4835067,54.7829995 36.8666026,53.2803891 C36.9610036,52.9105432 37.1568519,52.3401409 37.4225424,51.6338381 C38.1697711,49.6466984 39.1454894,47.7679887 40.3266931,46.0427115 C42.1933658,43.3163268 45.7534529,38.4830938 52.1361391,30.9017008 C56.060877,26.2398788 58.3999691,21.013573 58.9007812,15.7878255 C59.3263627,11.3466604 58.3701255,7.03972069 56.2771392,3.97118391"></path>
</svg>