<?xml version="1.0" encoding="UTF-8"?>
<svg viewBox="0 0 24 24" version="1.1" xmlns="http://www.w3.org/2000/svg" xmlns:xlink="http://www.w3.org/1999/xlink">
        <path d="M23.6488369,18.8769545 C23.019835,17.2454113 21.8353509,14.7328348 20.6672046,10.9068661 C20.5528406,10.0910945 20.3812946,8.60639021 19.6624354,7.91298436 C19.1886417,7.43167913 17.873456,5.81645139 17.873456,5.81645139 C17.4650132,4.31543168 16.5664391,0 16.5664391,0 L14.025925,4.37253569 C9.70460042,4.03806934 4.27231146,4.2746431 0,7.79061863 L0,24 C0,24 3.32472422,24 5.55482179,24 C7.50060237,21.4627367 9.14534743,18.7088081 10.4561351,15.7933379 C11.2730207,20.6879674 15.6270207,20.0598232 16.6481276,20.7369137 C17.1709344,21.0876954 18.7720301,24.3915704 21.1491671,23.9265806 C22.7420939,23.5676411 24.8414898,21.9442556 23.6488369,18.8769545 Z M17.3914935,12.6526173 C16.7707038,12.2933974 16.2855646,11.7401181 16.0109569,11.0781781 C16.6262922,10.7147398 17.3615502,10.6119441 18.0531708,10.7926581 C18.3920277,10.9060554 18.6431997,11.1932849 18.7100782,11.5438693 C18.7769567,11.8944537 18.6491248,12.2537862 18.3757506,12.4836562 C18.1023764,12.7135262 17.7260406,12.7781293 17.3914935,12.6526173 Z M22.7502628,21.4955812 C22.6195611,21.846363 22.34182,22.0584636 22.1294297,21.9687288 C21.9170395,21.8789939 21.8516886,21.5200544 21.9823903,21.1529572 C22.113092,20.78586 22.3908331,20.5900748 22.6032234,20.6798097 C22.8156136,20.7695445 22.8809644,21.1529572 22.7502628,21.4955812 Z" id="path-1"></path>
</svg>