<?xml version="1.0" encoding="UTF-8"?>
<svg viewBox="0 0 24 24" version="1.1" xmlns="http://www.w3.org/2000/svg" xmlns:xlink="http://www.w3.org/1999/xlink">
<path d="M18.8780364,14.2981091 C18.8780364,18.1868364 15.7107636,21.3504727 11.8184,21.3504727 C7.92530909,21.3504727 4.75876364,18.1868364 4.75876364,14.2981091 C4.75876364,10.4093818 7.92530909,7.24647273 11.8184,7.24647273 C15.7107636,7.24647273 18.8780364,10.4093818 18.8780364,14.2981091 M21.2729455,14.1228364 C21.2729455,11.4712 20.1784,9.07847273 18.4205818,7.36210909 L19.2634909,6.17229091 C19.4482182,5.91192727 19.3864,5.55192727 19.1260364,5.3672 L17.5922182,4.28283636 C17.3318545,4.09883636 16.9704,4.15992727 16.7864,4.41956364 L15.9347636,5.62101818 C15.1100364,5.22174545 14.2205818,4.93956364 13.2838545,4.79338182 L13.2838545,4.68210909 L13.2838545,4.50901818 C13.2838545,4.12647273 13.5973091,3.81301818 13.9805818,3.81301818 L14.3645818,3.81301818 C14.7478545,3.81301818 15.0613091,3.49956364 15.0613091,3.11701818 L15.0613091,1.00065455 C15.0613091,0.617381818 14.7478545,0.304654545 14.3645818,0.304654545 L9.27149091,0.304654545 C8.88821818,0.304654545 8.57476364,0.617381818 8.57476364,1.00065455 L8.57476364,3.11701818 C8.57476364,3.49956364 8.88821818,3.81301818 9.27149091,3.81301818 L9.65621818,3.81301818 C10.0394909,3.81301818 10.3529455,4.12647273 10.3529455,4.50901818 L10.3529455,4.79338182 C9.35367273,4.94901818 8.40749091,5.25738182 7.53767273,5.70101818 L6.69549091,4.51265455 C6.51076364,4.25229091 6.15003636,4.1912 5.88894545,4.3752 L4.35585455,5.46029091 C4.09476364,5.64429091 4.03294545,6.00501818 4.21767273,6.26465455 L5.08530909,7.48938182 C3.40385455,9.19629091 2.36385455,11.5373818 2.36385455,14.1228364 C2.36385455,19.3439273 6.59658182,23.5773818 11.8184,23.5773818 C11.8271273,23.5773818 11.8358545,23.5759273 11.8445818,23.5759273 C17.0540364,23.5613818 21.2729455,19.3352 21.2729455,14.1228364 M11.8183273,8.46930909 C11.8030545,8.46930909 11.7870545,8.47076364 11.7717818,8.47076364 L11.7717818,14.2380364 L5.99796364,14.2380364 C5.99796364,14.2533091 5.99723636,14.2685818 5.99723636,14.2845818 C5.99723636,17.4751273 8.58341818,20.0729455 11.7717818,20.0984 C11.7870545,20.0984 11.8030545,20.0991273 11.8183273,20.0991273 C15.0277818,20.0991273 17.6394182,17.4911273 17.6394182,14.2845818 C17.6394182,14.2685818 17.6379636,14.2533091 17.6379636,14.2380364 C17.6132364,11.0533091 15.0125091,8.46930909 11.8183273,8.46930909" id="path-1"></path>
</svg>